<svg xmlns="http://www.w3.org/2000/svg" viewBox="0 0 130 106" width="512" height="417"><path fill="#111111" d="M128.73,51.39a17.21,17.21,0,0,0-.56-4.32,20.56,20.56,0,0,0-1.07-2.83,11.54,11.54,0,0,0-5.1-5.41,3.57,3.57,0,0,1-1.94-2.34,43.56,43.56,0,0,0-10.57-17.85c-1.11-1.14-2.27-2.21-3.45-3.23C94.94,6,78.69,0,60.56,0c-2,0-4,.08-5.92.22L53.55.31C23.44,2.9.05,22,0,45.18c0,.12,0,.24,0,.36l0,1H0a41.94,41.94,0,0,0,1.19,8.32C2.23,59.05,4,63,5.49,67c4.61,12.43,9.23,24.87,13.75,37.33a1.9,1.9,0,0,0,2.23,1.5q32.28-.06,64.54,0,6.49,0,13,0c.62,0,1.14,0,1.41-.74.76-2.12,1.57-4.21,2.37-6.32q3.23-8.54,6.47-17.08a3.8,3.8,0,0,1,.82-1.37,38.33,38.33,0,0,0,8.78-12.93,6.37,6.37,0,0,1,3-3.33,13.81,13.81,0,0,0,4.67-4.64,18.23,18.23,0,0,0,1.71-3.94A17,17,0,0,0,128.73,51.39Zm-11.93,7.9a5.11,5.11,0,0,0-3.18,3.42A31.85,31.85,0,0,1,105,76a7.09,7.09,0,0,0-1.82,2.81c-1.54,4.31-3.2,8.56-4.83,12.83-.8,2.08-1.69,4.13-2.41,6.24a1.82,1.82,0,0,1-2,1.42c-11.38,0-22.77,0-34.16,0v0c-11.28,0-22.56,0-33.84,0a1.82,1.82,0,0,1-2.09-1.43c-3.23-9-6.54-18-9.86-27-2-5.35-4.24-10.61-6-16-2.76-8.69-2-17.15,2.91-25,5.63-8.9,13.76-14.73,23.43-18.54C44.83,7.12,55.78,6,66.88,6.67a60,60,0,0,1,25.07,7c7.88,4.24,14.62,9.79,19,17.8a35.79,35.79,0,0,1,3.48,9.31A2.62,2.62,0,0,0,116.24,43a8.69,8.69,0,0,1,5.92,8.68C122.13,55.39,120.05,57.88,116.8,59.29Z"></path><path fill="#ffffff" d="M59.79,99.25c-11.28,0-22.56,0-33.84,0a1.82,1.82,0,0,1-2.09-1.43c-3.23-9-6.54-18-9.86-27-2-5.35-4.24-10.61-6-16-2.76-8.69-2-17.15,2.91-25,5.63-8.9,13.76-14.73,23.43-18.54C44.83,7.12,55.78,6,66.88,6.67a60,60,0,0,1,25.07,7c7.88,4.24,14.62,9.79,19,17.8a35.79,35.79,0,0,1,3.48,9.31A2.62,2.62,0,0,0,116.24,43a8.69,8.69,0,0,1,5.92,8.68c0,3.75-2.11,6.24-5.36,7.65a5.11,5.11,0,0,0-3.18,3.42A31.85,31.85,0,0,1,105,76a7.09,7.09,0,0,0-1.82,2.81c-1.54,4.31-3.2,8.56-4.83,12.83-.8,2.08-1.69,4.13-2.41,6.24a1.82,1.82,0,0,1-2,1.42c-11.38,0-22.77,0-34.16,0ZM93.22,84.36A28.08,28.08,0,0,1,82,87.55c-6.27.31-10.47-4.07-10.88-10.11-.35-5.07,1.36-9.77,2.25-14.61a3,3,0,0,0-1.2-3.39c-5.09-4.14-4.88-10.73.68-14.3,3.31-2.13,7.11-1.6,10.82-.89,1.11.21,1.17.75,1,1.58-.36,1.43-.81,2.84-1.09,4.28-.24,1.19-.84,1.3-1.88,1a10.12,10.12,0,0,0-3.55-.46c-1.16.09-2.08.63-2.19,1.82a2,2,0,0,0,1.82,2c1.16.18,2.09.92,3.23,1s1.19.66,1,1.55c-.7,3.08-1.41,6.15-2,9.25a63.33,63.33,0,0,0-1.7,10c-.13,3.31,1.76,5,5,4.13A37.76,37.76,0,0,0,98.1,72.56c5.56-4.6,9.09-10.36,9.87-17.62.13-1.19.68-1.46,1.7-1.4a7.64,7.64,0,0,0,3.69-.58c.77-.34,1.72-.53,1.55-1.75s-.86-1.49-1.9-1.67a25.65,25.65,0,0,0-3.92.12c-.87,0-1.1-.28-1.13-1.12a39.4,39.4,0,0,0-.47-5.22c-1.23-7-4.94-12.62-10.13-17.2C88.57,18.34,78,14.69,66.44,13.9a71.82,71.82,0,0,0-21.78,1.74C34.74,18,26.16,22.53,19.45,30.28a22,22,0,0,0-5.08,20c1,4.75,3.14,9.16,4.81,13.71Q24.09,77.4,29,90.82a1.55,1.55,0,0,0,1.65,1.23q7.23,0,14.45,0c.85,0,1.2-.31,1.17-1.16q-.06-1.56,0-3.12c0-.57-.32-1.38.24-1.65s1,.5,1.39.9c1.22,1.24,2.43,2.48,3.61,3.75a3.69,3.69,0,0,0,3,1.29c2.3-.08,4.6,0,6.9,0,3.84,0,3.84,0,3.86-3.86a3.61,3.61,0,0,1,0-.66c.08-.46-.24-1.14.27-1.33s1,.36,1.36.74c1.42,1.41,2.88,2.79,4.22,4.26a2.24,2.24,0,0,0,1.82.84c5.42,0,10.84-.06,16.26,0,1,0,1.28-.42,1.68-1.17C92,88.93,92.32,86.78,93.22,84.36Z"></path><path fill="#61c6ec" d="M93.22,84.36c-.9,2.42-1.26,4.57-2.3,6.51-.4.75-.73,1.17-1.68,1.17C83.82,92,78.4,92,73,92.05a2.24,2.24,0,0,1-1.82-.84c-1.34-1.47-2.8-2.85-4.22-4.26-.39-.38-.83-.92-1.36-.74s-.19.87-.27,1.33a3.61,3.61,0,0,0,0,.66c0,3.9,0,3.9-3.86,3.86-2.3,0-4.6-.08-6.9,0a3.69,3.69,0,0,1-3-1.29c-1.18-1.27-2.39-2.51-3.61-3.75-.41-.4-.75-1.22-1.39-.9s-.22,1.08-.24,1.65q-.06,1.56,0,3.12c0,.85-.32,1.16-1.17,1.16q-7.22,0-14.45,0A1.55,1.55,0,0,1,29,90.82Q24.12,77.38,19.18,64c-1.67-4.55-3.77-9-4.81-13.71a22,22,0,0,1,5.08-20C26.16,22.53,34.74,18,44.66,15.64A71.82,71.82,0,0,1,66.44,13.9c11.52.79,22.13,4.44,30.92,12.22,5.19,4.58,8.9,10.22,10.13,17.2a39.4,39.4,0,0,1,.47,5.22c0,.84.26,1.11,1.13,1.12a25.65,25.65,0,0,1,3.92-.12c1,.18,1.74.54,1.9,1.67s-.78,1.41-1.55,1.75a7.64,7.64,0,0,1-3.69.58c-1-.06-1.57.21-1.7,1.4-.78,7.26-4.31,13-9.87,17.62a37.76,37.76,0,0,1-14.85,7.79c-3.26.82-5.15-.82-5-4.13a63.33,63.33,0,0,1,1.7-10c.63-3.1,1.34-6.17,2-9.25.2-.89.14-1.5-1-1.55s-2.07-.79-3.23-1a2,2,0,0,1-1.82-2c.11-1.19,1-1.73,2.19-1.82a10.12,10.12,0,0,1,3.55.46c1,.29,1.64.18,1.88-1,.28-1.44.73-2.85,1.09-4.28.21-.83.15-1.37-1-1.58-3.71-.71-7.51-1.24-10.82.89-5.56,3.57-5.77,10.16-.68,14.3a3,3,0,0,1,1.2,3.39c-.89,4.84-2.6,9.54-2.25,14.61.41,6,4.61,10.42,10.88,10.11A28.08,28.08,0,0,0,93.22,84.36Z"></path></svg>